<?xml version="1.0" encoding="UTF-8" standalone="no"?>
<!-- Created with Inkscape (http://www.inkscape.org/) -->

<svg
   width="7.4945521mm"
   height="7.5712013mm"
   viewBox="0 0 7.4945521 7.5712013"
   version="1.1"
   id="svg1"
   xml:space="preserve"
   xmlns="http://www.w3.org/2000/svg"
   xmlns:svg="http://www.w3.org/2000/svg"><defs
     id="defs1" /><g
     id="layer1"
     transform="translate(-153.41875,-21.305991)"><path
       id="path20"
       style="fill:#000000;fill-opacity:1;fill-rule:nonzero;stroke:none;stroke-width:0.25;stroke-linecap:round;stroke-linejoin:round;stroke-dasharray:none;stroke-opacity:1"
       d="m 153.25994,22.079376 c 0.019,-0.173114 0.006,-0.350111 -0.041,-0.530716 -0.0195,0.17315 -0.0393,0.346371 -0.0584,0.519793 -0.0695,0.632536 -0.10801,1.093826 -0.15059,2.294449 -0.0317,0.892994 -0.23286,1.905202 -0.43207,2.642926 -0.0797,0.295089 -0.15908,0.546433 -0.22669,0.72805 -0.0451,0.121078 -0.0856,0.211867 -0.11456,0.26031 -0.0114,0.01907 -0.0205,0.03223 -0.0255,0.03819 -4.9e-4,5.96e-4 -9.4e-4,0.0011 -0.001,0.0016 -3.5e-4,3.97e-4 -6.5e-4,7.29e-4 -9e-4,9.93e-4 -2.2e-4,2.38e-4 -4e-4,4.2e-4 -5.2e-4,5.44e-4 -1.2e-4,1.11e-4 -1.8e-4,1.75e-4 -2e-4,1.9e-4 -1.4e-4,1.31e-4 0.004,-0.0088 0.0263,-0.0076 0.005,2.49e-4 0.007,5.87e-4 0.0118,0.0022 0.0288,0.0095 0.0285,0.03012 0.0286,0.03056 0,4.2e-5 -1e-5,-1.8e-5 -2e-5,-1.34e-4 -1e-5,-1.48e-4 -2e-5,-3.99e-4 -3e-5,-7.4e-4 -2e-5,-4.21e-4 -3e-5,-9.78e-4 -3e-5,-0.0017 0,-7.47e-4 2e-5,-0.0016 6e-5,-0.0027 6e-4,-0.01521 0.007,-0.05406 0.0186,-0.103634 0.0173,-0.07435 0.0454,-0.176412 0.0788,-0.291257 0.0913,-0.31403 0.2272,-0.740238 0.28807,-0.963453 0.0811,-0.297489 0.17281,-0.590839 0.28623,-0.870451 0.13105,-0.323059 0.29729,-0.97269 0.4476,-1.578621 0.0909,-0.366421 0.17681,-0.720619 0.24672,-0.984207 0.0466,-0.175725 0.0868,-0.312423 0.11414,-0.380531 0.003,-0.0076 0.006,-0.01425 0.009,-0.01992 0.001,-0.0023 0.002,-0.0044 0.003,-0.0063 8.5e-4,-0.0017 0.002,-0.0033 0.002,-0.0048 6.8e-4,-0.0013 0.001,-0.0025 0.002,-0.0035 5.4e-4,-9.41e-4 0.001,-0.0018 0.001,-0.0025 4e-4,-6.43e-4 7.5e-4,-0.0012 0.001,-0.0016 2.7e-4,-3.97e-4 4.9e-4,-7.1e-4 6.5e-4,-9.29e-4 0.001,-0.002 -0.006,0.01548 -0.0359,0.0096 -0.022,-0.0044 -0.0259,-0.01801 -0.0256,-0.01748 2e-5,5.9e-5 8e-5,2.05e-4 1.7e-4,4.3e-4 9e-5,2.51e-4 2.1e-4,5.99e-4 3.6e-4,0.001 1.6e-4,4.85e-4 3.4e-4,0.0011 5.4e-4,0.0018 2.2e-4,7.71e-4 4.6e-4,0.0017 7.1e-4,0.0027 2.7e-4,0.0011 5.6e-4,0.0024 8.5e-4,0.0037 3.2e-4,0.0015 6.5e-4,0.0032 9.8e-4,0.005 0.005,0.02619 0.008,0.07873 0.008,0.146098 3.4e-4,0.101056 -0.004,0.237769 -0.0111,0.391671 -0.0165,0.381748 -0.0446,0.879136 -0.03,1.210347 0.006,0.142472 0.0211,0.27754 0.0587,0.346763 0.025,0.04597 0.0715,0.06004 0.11576,0.0362 0.0262,-0.01413 0.0494,-0.03968 0.07,-0.06714 0.0854,-0.113473 0.1988,-0.363433 0.312,-0.63935 0.13667,-0.333119 0.28302,-0.729148 0.40055,-1.043691 0.0707,-0.189095 0.13133,-0.349778 0.17317,-0.449845 0.0139,-0.03336 0.0258,-0.06004 0.0348,-0.07787 0.004,-0.0089 0.008,-0.01567 0.0105,-0.01915 2.2e-4,-3.48e-4 4.2e-4,-6.62e-4 6.1e-4,-9.39e-4 1.6e-4,-2.49e-4 3.1e-4,-4.69e-4 4.4e-4,-6.56e-4 1.2e-4,-1.68e-4 2.2e-4,-3.1e-4 3e-4,-4.25e-4 7.4e-4,-0.001 0.002,3e-4 -0.007,0.0058 0.0132,-0.0086 0.0152,-0.0072 0.0175,-0.0067 0.002,4.82e-4 0.01,0.0039 0.022,0.01543 0.0179,0.01729 0.0702,0.08468 0.10761,0.121239 0.10044,0.09825 0.2457,0.151313 0.37118,0.110779 0.0942,-0.03042 0.50824,-0.215843 0.6882,-0.372326 0.044,-0.03827 0.0866,-0.08542 0.0961,-0.135455 0.009,-0.04715 0.007,-0.08885 -0.002,-0.125353 -0.0146,-0.06041 -0.0747,-0.104177 -0.14215,-0.09191 -0.006,-0.0033 -0.006,-0.0098 0.004,-0.02623 -0.0101,0.01652 -0.0163,0.03212 -0.0204,0.04685 0.0299,0.02325 0.0523,0.05792 0.061,0.09469 0.005,0.02276 0.007,0.04982 8.2e-4,0.08323 -7.4e-4,0.0039 -0.004,0.01187 -0.0105,0.02213 -0.007,0.01026 -0.0172,0.02265 -0.0307,0.03596 -0.0403,0.03992 -0.10724,0.08744 -0.18308,0.133265 -0.0948,0.05728 -0.20381,0.112896 -0.29637,0.156372 -0.0926,0.04348 -0.17149,0.07564 -0.19618,0.08361 -0.0321,0.01037 -0.0683,0.01159 -0.10611,0.0038 -0.0567,-0.01162 -0.11632,-0.04389 -0.16442,-0.09095 -0.0329,-0.03213 -0.059,-0.06766 -0.0866,-0.09901 -0.0267,-0.03038 -0.0623,-0.06513 -0.11175,-0.06629 -0.0263,-6.16e-4 -0.0499,0.0079 -0.0731,0.02291 -0.0173,0.01124 -0.0292,0.03403 -0.0346,0.04421 -0.0684,0.128707 -0.29703,0.770685 -0.47912,1.241523 -0.12441,0.321694 -0.25165,0.631539 -0.35192,0.822637 -0.0334,0.0637 -0.0641,0.114266 -0.0885,0.145845 -0.0122,0.01579 -0.023,0.02671 -0.0296,0.03173 -6.5e-4,5.02e-4 -0.001,9.46e-4 -0.002,0.0013 -5e-4,3.49e-4 -9.5e-4,6.52e-4 -0.001,9.1e-4 -3.6e-4,2.33e-4 -6.9e-4,4.3e-4 -9.6e-4,5.92e-4 -0.002,0.0015 -5.2e-4,-4.77e-4 0.006,-1.02e-4 0.007,4.54e-4 0.01,0.0022 0.0132,0.005 2.5e-4,2.07e-4 4.7e-4,3.97e-4 6.4e-4,5.64e-4 2e-4,1.86e-4 3.6e-4,3.43e-4 4.7e-4,4.65e-4 1.3e-4,1.36e-4 2.1e-4,2.28e-4 2.4e-4,2.71e-4 4e-5,4.7e-5 3e-5,3.3e-5 -3e-5,-4.8e-5 -7e-5,-9.1e-5 -1.9e-4,-2.65e-4 -3.5e-4,-5.26e-4 -1.8e-4,-2.91e-4 -4.2e-4,-6.9e-4 -6.9e-4,-0.0012 -0.0126,-0.0231 -0.0273,-0.08087 -0.0359,-0.157261 -0.0129,-0.114584 -0.0163,-0.273152 -0.0142,-0.449321 0.005,-0.440422 0.0448,-0.990685 0.0447,-1.286012 -5e-5,-0.07768 -0.002,-0.170096 -0.0206,-0.2109 -0.006,-0.01232 -0.0188,-0.03355 -0.0457,-0.03892 -0.0572,-0.0114 -0.084,0.06252 -0.0954,0.09081 -0.0615,0.153087 -0.16477,0.566954 -0.27633,1.018619 -0.17275,0.699352 -0.38132,1.552951 -0.532,1.92443 -0.11546,0.28464 -0.20837,0.582035 -0.29005,0.881739 -0.0761,0.279131 -0.27565,0.893558 -0.35426,1.202838 -0.0187,0.07364 -0.0332,0.138779 -0.0347,0.177901 -4.6e-4,0.01174 -0.002,0.04297 0.0216,0.06312 0.009,0.0076 0.0206,0.0124 0.0327,0.01305 0.0468,0.0025 0.0792,-0.05885 0.0933,-0.08241 0.10839,-0.181349 0.29238,-0.738512 0.45167,-1.406366 0.16361,-0.685958 0.30899,-1.519025 0.33575,-2.27268 0.0425,-1.198227 0.0807,-1.656417 0.15005,-2.287072 z m -0.58465,-1.005102 c -1e-5,-0.07671 -0.0262,-0.151485 -0.0419,-0.189045 0,0 0,0 0,0 0,0 0,0 0,0 0,0 0,0 0,0 -0.006,-0.01382 -0.0103,-0.01178 -0.0103,-0.01178 0,0 -0.005,-0.0018 -0.01,0.01217 0,0 0,0 0,0 0,0 0,0 0,0 0,0 0,0 0,0 -0.0135,0.03687 -0.0382,0.113847 -0.0381,0.188669 1e-4,0.513475 -0.0342,1.938614 -0.3749,3.318472 -0.2132,0.863442 -0.54466,1.821395 -0.82276,2.576046 -0.22247,0.603722 -0.41019,1.075667 -0.47771,1.271374 -0.0103,0.02981 -0.0283,0.08128 -0.0282,0.105486 1.9e-4,0.02554 0.004,0.06742 0.036,0.08858 0.0104,0.0068 0.0218,0.01017 0.0341,0.01029 0.0331,3.33e-4 0.0581,-0.02385 0.0738,-0.04226 0.0435,-0.05104 0.10058,-0.163187 0.1668,-0.334995 0.0288,-0.07467 0.0713,-0.227958 0.11835,-0.413416 0.19409,-0.765014 0.51284,-2.256106 0.59891,-2.581528 0.0529,-0.200032 0.21561,-0.612196 0.37541,-0.973121 0.0959,-0.216555 0.19116,-0.416066 0.26059,-0.541988 0.0232,-0.04197 0.0435,-0.07583 0.0591,-0.09834 0.006,-0.009 0.0117,-0.01617 0.0158,-0.02099 6.2e-4,-7.23e-4 0.001,-0.0014 0.002,-0.002 4.9e-4,-5.52e-4 9.6e-4,-0.0011 0.001,-0.0015 3.9e-4,-4.13e-4 7.5e-4,-7.86e-4 0.001,-0.0011 2.9e-4,-3e-4 5.6e-4,-5.66e-4 8e-4,-7.98e-4 0.002,-0.0021 0.003,-5.66e-4 -0.006,0.0025 7.4e-4,-2.42e-4 0.001,-4.33e-4 0.002,-5.8e-4 4.9e-4,-1.31e-4 9e-4,-2.28e-4 0.001,-2.96e-4 2.9e-4,-6.2e-5 5.2e-4,-1.01e-4 6.8e-4,-1.26e-4 1.4e-4,-2.1e-5 2.3e-4,-3.1e-5 2.6e-4,-3.4e-5 3e-5,-2e-6 1e-5,0 -5e-5,3e-6 -5.5e-4,2.4e-5 -0.005,-5.4e-4 -0.009,-0.0028 -0.004,-0.0023 -0.005,-0.0052 -0.005,-0.0047 3e-5,5.1e-5 7e-5,1.37e-4 1.3e-4,2.58e-4 6e-5,1.35e-4 1.4e-4,3.15e-4 2.3e-4,5.38e-4 1.1e-4,2.49e-4 2.2e-4,5.52e-4 3.5e-4,9.09e-4 1.4e-4,3.97e-4 3e-4,8.6e-4 4.6e-4,0.0014 1.8e-4,5.86e-4 3.7e-4,0.0013 5.6e-4,0.002 4.2e-4,0.0016 8.5e-4,0.0037 0.001,0.006 0.004,0.02352 8.9e-4,0.07665 -0.007,0.137489 -0.008,0.06041 0.0334,0.128237 0.0334,0.128237 0,0 0.0581,-0.05407 0.0658,-0.11579 0.0102,-0.08159 0.0292,-0.211228 -0.0463,-0.245982 -0.0237,-0.01091 -0.0485,-0.0086 -0.0703,-0.0014 -0.025,0.0083 -0.0434,0.03202 -0.0544,0.04651 -0.12396,0.163758 -0.44009,0.87495 -0.60862,1.324904 -0.0493,0.131729 -0.0895,0.249774 -0.11214,0.335383 -0.0652,0.246626 -0.26696,1.173327 -0.43647,1.904789 -0.11665,0.503372 -0.22708,0.949114 -0.27742,1.079764 -0.0488,0.126548 -0.0896,0.212434 -0.12001,0.263151 -0.0121,0.02029 -0.0226,0.03492 -0.0302,0.04365 -0.001,0.0013 -0.002,0.0025 -0.003,0.0035 -8.8e-4,9.35e-4 -0.002,0.0018 -0.002,0.0025 -6.6e-4,6.41e-4 -0.001,0.0012 -0.002,0.0017 -4.6e-4,4.14e-4 -8.7e-4,7.53e-4 -0.001,0.001 -0.003,0.0024 0.003,-0.0048 0.0191,-0.0016 0.0165,0.0033 0.0187,0.0087 0.0224,0.01458 2.8e-4,4.35e-4 5.1e-4,8.24e-4 7e-4,0.0012 2.1e-4,3.8e-4 3.7e-4,7.01e-4 5e-4,9.62e-4 1.4e-4,2.91e-4 2.3e-4,5.07e-4 2.9e-4,6.51e-4 6e-5,1.61e-4 9e-5,2.32e-4 8e-5,2.19e-4 0,-1.5e-5 -4e-5,-1.34e-4 -1e-4,-3.5e-4 -7e-5,-2.41e-4 -1.6e-4,-6e-4 -2.6e-4,-0.0011 -5.6e-4,-0.0026 -0.001,-0.0085 -0.001,-0.01645 0,1.5e-5 0.0139,-0.04611 0.0139,-0.04614 0.0156,-0.04741 0.0431,-0.122372 0.0795,-0.219227 0.24268,-0.644438 0.88919,-2.273335 1.23227,-3.662837 0.34386,-1.392511 0.37792,-2.825064 0.37782,-3.342464 z m -2.75575,3.812574 c -0.0669,0.126319 -0.0788,0.274755 -0.0788,0.274755 0,0 0.10303,-0.106799 0.16721,-0.227944 0.15308,-0.288979 0.29604,-0.483468 0.71234,-1.439596 0.51614,-1.185412 0.51275,-1.46507 0.7229,-1.927859 0.0803,-0.176793 0.1215,-0.300966 0.12016,-0.365685 -3.3e-4,-0.01591 -0.003,-0.03814 -0.0187,-0.05587 -0.0201,-0.02292 -0.0486,-0.02457 -0.07,-0.01711 -0.055,0.0192 -0.11079,0.114231 -0.14475,0.186549 -0.0392,0.08338 -0.0815,0.245625 -0.12297,0.440566 -0.0854,0.401671 -0.17633,0.988041 -0.23978,1.501908 -0.0571,0.462581 -0.10268,0.955144 -0.0756,1.091149 0.03,0.150542 0.0825,0.250954 0.16608,0.27815 0.0855,0.0278 0.16859,-0.03078 0.23446,-0.115521 0.12382,-0.159299 0.38758,-0.542719 0.45144,-1.039914 0.0323,-0.251501 0.0278,-0.430927 0.0152,-0.547523 -0.007,-0.05928 -0.0359,-0.110552 -0.0605,-0.141122 -0.0213,-0.01352 -0.0194,-0.0108 -0.0194,-0.0108 0,0 0.001,-0.0024 -0.01,0.01917 -0.004,0.03053 -0.0144,0.09476 -0.01,0.143506 0.0117,0.108209 0.0165,0.279729 -0.0149,0.524034 -0.0605,0.471066 -0.31234,0.83835 -0.43122,0.991283 -0.0554,0.07121 -0.0997,0.08989 -0.12458,0.08179 -0.01,-0.0032 -0.0225,-0.01137 -0.037,-0.03152 -0.0218,-0.03023 -0.0451,-0.08657 -0.0619,-0.171068 -0.003,-0.01702 -0.006,-0.05225 -0.006,-0.09834 -2.7e-4,-0.06914 0.004,-0.164387 0.0125,-0.277524 0.0209,-0.282845 0.0664,-0.678231 0.12251,-1.077148 0.0561,-0.398917 0.12294,-0.801793 0.1863,-1.099699 0.0422,-0.198603 0.0848,-0.353041 0.11568,-0.418865 0.0252,-0.05376 0.0522,-0.09582 0.0715,-0.118414 0.002,-0.0023 0.004,-0.0043 0.006,-0.0062 0.002,-0.0017 0.003,-0.0031 0.004,-0.0044 0.001,-0.0012 0.002,-0.0022 0.003,-0.003 9e-4,-7.75e-4 0.002,-0.0014 0.002,-0.0019 5.9e-4,-4.6e-4 0.001,-8.13e-4 0.001,-0.0011 3.2e-4,-2.19e-4 5.3e-4,-3.49e-4 6.1e-4,-3.94e-4 0.001,-6.05e-4 -0.0211,0.01107 -0.04,-0.01052 -0.007,-0.008 -0.006,-0.0124 -0.006,-0.01108 2e-5,1.47e-4 4e-5,3.5e-4 6e-5,6.07e-4 3e-5,2.85e-4 6e-5,6.36e-4 8e-5,0.001 2e-5,4.59e-4 4e-5,9.95e-4 5e-5,0.0016 10e-6,6.75e-4 10e-6,0.0014 -1e-5,0.0023 -1e-5,9.4e-4 -5e-5,0.002 -1.2e-4,0.0031 -6.4e-4,0.01139 -0.004,0.0319 -0.0116,0.05961 -0.0151,0.05541 -0.0464,0.140215 -0.0995,0.257034 -0.21809,0.480281 -0.20568,0.739941 -0.72352,1.929285 -0.41454,0.952077 -0.55277,1.137724 -0.70903,1.432705 z"
       transform="matrix(1.1857581,0,0,1,-24.256067,0.43264255)" /></g></svg>
